<svg width="48" height="48" viewBox="0 0 48 48" fill="none" xmlns="http://www.w3.org/2000/svg">
<path d="M38.1421 9.85786C35.3451 7.06081 31.7814 5.156 27.9018 4.38429C24.0222 3.61259 20.0009 4.00866 16.3463 5.52241C12.6918 7.03616 9.56824 9.59961 7.37061 12.8886C5.17298 16.1776 4 20.0444 4 24C4 27.9556 5.17298 31.8224 7.37061 35.1114C9.56823 38.4004 12.6918 40.9638 16.3463 42.4776C20.0009 43.9913 24.0222 44.3874 27.9018 43.6157C31.7814 42.844 35.3451 40.9392 38.1421 38.1421" stroke="#4058A6" stroke-width="2"/>
<path d="M9.85786 38.1421C12.6549 40.9392 16.2186 42.844 20.0982 43.6157C23.9778 44.3874 27.9991 43.9913 31.6537 42.4776C35.3082 40.9638 38.4318 38.4004 40.6294 35.1114C42.827 31.8224 44 27.9556 44 24C44 20.0444 42.827 16.1776 40.6294 12.8886C38.4318 9.59961 35.3082 7.03616 31.6537 5.52241C27.9991 4.00866 23.9778 3.61259 20.0982 4.38429C16.2186 5.156 12.6549 7.06081 9.85787 9.85786" stroke="#4058A6" stroke-width="2"/>
<path d="M15 24L14.2929 24.7071L13.5858 24L14.2929 23.2929L15 24ZM33 23C33.5523 23 34 23.4477 34 24C34 24.5523 33.5523 25 33 25V23ZM20.2929 30.7071L14.2929 24.7071L15.7071 23.2929L21.7071 29.2929L20.2929 30.7071ZM14.2929 23.2929L20.2929 17.2929L21.7071 18.7071L15.7071 24.7071L14.2929 23.2929ZM15 23H33V25H15V23Z" fill="#4058A6"/>
</svg>
