<svg width="66" height="62" viewBox="0 0 66 62" fill="none" xmlns="http://www.w3.org/2000/svg">
    <path d="M39.5549 16.4064L39.5383 16.4219L39.5383 16.4219L16.5741 37.9944C16.5624 38.0054 16.5507 38.0163 16.5392 38.0271C16.3666 38.1889 16.2137 38.3322 16.1051 38.5141C15.9964 38.6961 15.9427 38.8986 15.8822 39.1273C15.8781 39.1426 15.874 39.158 15.8699 39.1736L13.4813 48.1487L13.4742 48.1753C13.4326 48.3315 13.3881 48.4983 13.3723 48.6387C13.3548 48.7932 13.3543 49.0545 13.5608 49.2671C13.7672 49.4797 14.0284 49.4869 14.1833 49.474C14.3241 49.4623 14.4921 49.4227 14.6495 49.3857L14.6763 49.3794L24.3427 47.1093C24.3574 47.1058 24.372 47.1024 24.3864 47.099C24.6027 47.0485 24.7942 47.0037 24.9697 46.9095C25.1453 46.8153 25.2884 46.6806 25.4502 46.5283C25.461 46.5182 25.4719 46.5079 25.4828 46.4976L48.2906 25.0721L48.3155 25.0487C48.6579 24.7271 48.9518 24.451 49.1555 24.1992C49.3731 23.93 49.5395 23.6274 49.5395 23.25C49.5395 22.8726 49.3731 22.57 49.1555 22.3008C48.9519 22.049 48.658 21.7729 48.3155 21.4513L48.2906 21.4279L42.9617 16.4219L42.9386 16.4002C42.6339 16.114 42.3704 15.8664 42.1319 15.6948C41.8758 15.5104 41.5937 15.372 41.25 15.372C40.9063 15.372 40.6242 15.5104 40.3681 15.6948C40.1296 15.8664 39.8661 16.114 39.5614 16.4002L39.5549 16.4064Z" stroke="#222222"/>
    <path d="M34.375 19.375L42.625 14.2083L50.875 21.9583L45.375 29.7083L34.375 19.375Z" fill="#222222"/>
</svg>
