<svg width="25" height="24" viewBox="0 0 25 24" fill="none" xmlns="http://www.w3.org/2000/svg">
<g id="Star">
<path id="Star 1" d="M10.554 6.62753C11.3406 4.66653 11.7339 3.68604 12.4102 3.68604C13.0866 3.68604 13.4799 4.66653 14.2665 6.62753L14.3031 6.71885C14.7475 7.82672 14.9697 8.38065 15.4225 8.71734C15.8754 9.05403 16.4699 9.10727 17.6588 9.21374L17.8737 9.23299C19.8195 9.40726 20.7924 9.49439 21.0006 10.1134C21.2088 10.7324 20.4863 11.3897 19.0412 12.7044L18.5589 13.1432C17.8274 13.8087 17.4617 14.1414 17.2912 14.5776C17.2594 14.6589 17.233 14.7423 17.2121 14.8271C17.1 15.2817 17.2071 15.7645 17.4213 16.7299L17.488 17.0305C17.8817 18.8048 18.0785 19.692 17.7348 20.0746C17.6064 20.2176 17.4395 20.3206 17.2541 20.3712C16.7579 20.5066 16.0534 19.9325 14.6445 18.7844C13.7193 18.0305 13.2567 17.6536 12.7256 17.5688C12.5167 17.5354 12.3038 17.5354 12.0949 17.5688C11.5638 17.6536 11.1012 18.0305 10.176 18.7844C8.76709 19.9325 8.06262 20.5066 7.56641 20.3712C7.381 20.3206 7.21409 20.2176 7.08566 20.0746C6.74198 19.692 6.93882 18.8048 7.33249 17.0305L7.39917 16.7299C7.61338 15.7645 7.72048 15.2817 7.60843 14.8271C7.58753 14.7423 7.56109 14.6589 7.52929 14.5776C7.35882 14.1414 6.99306 13.8087 6.26156 13.1432L5.77928 12.7044C4.33423 11.3897 3.61171 10.7324 3.81989 10.1134C4.02807 9.49439 5.00097 9.40726 6.94679 9.23299L7.16173 9.21374C8.35064 9.10727 8.9451 9.05403 9.39795 8.71734C9.8508 8.38065 10.073 7.82672 10.5174 6.71885L10.554 6.62753Z" stroke="#33363F" stroke-width="2"/>
</g>
</svg>
