<svg width="25" height="24" viewBox="0 0 25 24" fill="none" xmlns="http://www.w3.org/2000/svg">
<g id="Star_fill">
<path id="Star 1" d="M10.7176 7.21986C11.3597 5.61918 11.6808 4.81883 12.2023 4.70791C12.3395 4.67874 12.4812 4.67874 12.6184 4.70791C13.1399 4.81883 13.461 5.61918 14.1031 7.21986C14.4682 8.13014 14.6508 8.58528 14.9924 8.89485C15.0882 8.98168 15.1922 9.05901 15.303 9.12576C15.6978 9.36374 16.1907 9.40788 17.1765 9.49617C18.8452 9.64562 19.6796 9.72034 19.9344 10.1961C19.9872 10.2946 20.0231 10.4013 20.0406 10.5117C20.125 11.0447 19.5116 11.6028 18.2848 12.7189L17.9442 13.0288C17.3706 13.5506 17.0839 13.8115 16.918 14.1372C16.8185 14.3325 16.7518 14.5428 16.7205 14.7598C16.6684 15.1215 16.7524 15.5 16.9203 16.2569L16.9803 16.5274C17.2815 17.8849 17.4321 18.5637 17.2441 18.8973C17.0753 19.197 16.7642 19.3889 16.4206 19.4053C16.0381 19.4236 15.4991 18.9844 14.4211 18.106C13.7109 17.5273 13.3558 17.2379 12.9616 17.1249C12.6014 17.0216 12.2193 17.0216 11.8591 17.1249C11.4649 17.2379 11.1098 17.5273 10.3996 18.106C9.32159 18.9844 8.78261 19.4236 8.40008 19.4053C8.05649 19.3889 7.74544 19.197 7.57657 18.8973C7.38858 18.5637 7.53918 17.8849 7.84037 16.5274L7.90038 16.2569C8.06834 15.5 8.15231 15.1215 8.1002 14.7598C8.06894 14.5428 8.00222 14.3325 7.90272 14.1372C7.73685 13.8115 7.45008 13.5506 6.87653 13.0288L6.53586 12.7189C5.30907 11.6028 4.69568 11.0447 4.78015 10.5117C4.79764 10.4013 4.83352 10.2946 4.88629 10.1961C5.14109 9.72034 5.97547 9.64562 7.64424 9.49617C8.63002 9.40788 9.12291 9.36374 9.51775 9.12576C9.6285 9.05901 9.73251 8.98168 9.82833 8.89485C10.1699 8.58528 10.3525 8.13014 10.7176 7.21986Z" fill="#222222" stroke="#222222" stroke-width="2"/>
</g>
</svg>
