<svg width="35" height="35" viewBox="0 0 35 35" fill="none" xmlns="http://www.w3.org/2000/svg">
<g id="Group 36519">
<path id="Vector 398" d="M10.2339 31.4978H2C1.44772 31.4978 1 31.0501 1 30.4978V16.0759C1 15.5236 1.44771 15.0759 2 15.0759H10.2339C10.3168 15.0759 10.3839 15.1431 10.3839 15.2259V31.3478C10.3839 31.4306 10.3168 31.4978 10.2339 31.4978Z" stroke="#222222" stroke-linecap="round"/>
<path id="Vector 399" d="M10.3843 17.4218L14.9707 8.24908C15.0401 8.11022 15.0762 7.95711 15.0762 7.80186V2C15.0762 1.44772 15.5239 1 16.0762 1H20.1142C21.2187 1 22.1142 1.89543 22.1142 3V15.0759" stroke="#222222" stroke-linecap="round"/>
<path id="Vector 400" d="M17.4222 15.0759H33.2854C33.9519 15.0759 34.4319 15.7156 34.2455 16.3556L29.3619 33.1234C29.2376 33.5502 28.8464 33.8437 28.4018 33.8437H17.8364C17.5712 33.8437 17.3169 33.7384 17.1293 33.5509L15.3691 31.7907C15.1816 31.6031 14.9272 31.4978 14.662 31.4978H10.3843" stroke="#222222" stroke-linecap="round"/>
</g>
</svg>
