<svg width="48" height="49" viewBox="0 0 48 49" fill="none" xmlns="http://www.w3.org/2000/svg">
<path d="M9.85786 38.3691C12.6549 41.1661 16.2186 43.0709 20.0982 43.8426C23.9778 44.6143 27.9991 44.2183 31.6537 42.7045C35.3082 41.1908 38.4318 38.6273 40.6294 35.3383C42.827 32.0494 44 28.1826 44 24.2269C44 20.2713 42.827 16.4045 40.6294 13.1155C38.4318 9.82654 35.3082 7.26309 31.6537 5.74934C27.9991 4.23559 23.9778 3.83952 20.0982 4.61122C16.2186 5.38293 12.6549 7.28774 9.85787 10.0848" stroke="#4058A6" stroke-width="2"/>
<path d="M38.1421 10.0848C35.3451 7.28774 31.7814 5.38293 27.9018 4.61122C24.0222 3.83952 20.0009 4.23559 16.3463 5.74934C12.6918 7.26309 9.56824 9.82654 7.37061 13.1155C5.17298 16.4045 4 20.2713 4 24.2269C4 28.1826 5.17298 32.0493 7.37061 35.3383C9.56823 38.6273 12.6918 41.1908 16.3463 42.7045C20.0009 44.2183 24.0222 44.6143 27.9018 43.8426C31.7814 43.0709 35.3451 41.1661 38.1421 38.3691" stroke="#4058A6" stroke-width="2"/>
<path d="M33 24.2269L33.7071 23.5198L34.4142 24.2269L33.7071 24.934L33 24.2269ZM15 25.2269C14.4477 25.2269 14 24.7792 14 24.2269C14 23.6746 14.4477 23.2269 15 23.2269V25.2269ZM27.7071 17.5198L33.7071 23.5198L32.2929 24.934L26.2929 18.934L27.7071 17.5198ZM33.7071 24.934L27.7071 30.934L26.2929 29.5198L32.2929 23.5198L33.7071 24.934ZM33 25.2269H15V23.2269H33V25.2269Z" fill="#4058A6"/>
</svg>
