<svg width="54" height="54" viewBox="0 0 54 54" fill="none" xmlns="http://www.w3.org/2000/svg">
<g id="Trash_light">
<path id="Vector 8" d="M21.375 32.625L21.375 25.875" stroke="#222222" stroke-width="2" stroke-linecap="round"/>
<path id="Vector 9" d="M32.625 32.625L32.625 25.875" stroke="#222222" stroke-width="2" stroke-linecap="round"/>
<path id="Rectangle 41" d="M6.75 14.625H47.25H43.375C41.4894 14.625 40.5466 14.625 39.9608 15.2108C39.375 15.7966 39.375 16.7394 39.375 18.625V39.875C39.375 41.7606 39.375 42.7034 38.7892 43.2892C38.2034 43.875 37.2606 43.875 35.375 43.875H18.625C16.7394 43.875 15.7966 43.875 15.2108 43.2892C14.625 42.7034 14.625 41.7606 14.625 39.875V18.625C14.625 16.7394 14.625 15.7966 14.0392 15.2108C13.4534 14.625 12.5106 14.625 10.625 14.625H6.75Z" stroke="#222222" stroke-width="2" stroke-linecap="round"/>
<path id="Ellipse 45" d="M21.375 7.87554C21.375 7.87554 22.5 5.625 27 5.625C31.5 5.625 32.625 7.875 32.625 7.875" stroke="#222222" stroke-width="2" stroke-linecap="round"/>
</g>
</svg>
